<svg width="1400" height="400" viewBox="0 0 1400 400" xmlns="http://www.w3.org/2000/svg">
  <defs>
    <linearGradient id="restaurantGradient" x1="0%" y1="0%" x2="0%" y2="100%">
      <stop offset="0%" style="stop-color:#F9FAFB;stop-opacity:1" />
      <stop offset="100%" style="stop-color:#F3F4F6;stop-opacity:1" />
    </linearGradient>
    <linearGradient id="tableGradient" x1="0%" y1="0%" x2="0%" y2="100%">
      <stop offset="0%" style="stop-color:#92400E;stop-opacity:1" />
      <stop offset="100%" style="stop-color:#78350F;stop-opacity:1" />
    </linearGradient>
  </defs>
  
  <!-- Background -->
  <rect width="1400" height="400" fill="url(#restaurantGradient)" />
  
  <!-- Floor -->
  <rect x="0" y="300" width="1400" height="100" fill="#E5E7EB" />
  
  <!-- Floor pattern lines -->
  <line x1="0" y1="320" x2="1400" y2="320" stroke="#D1D5DB" stroke-width="2" opacity="0.5"/>
  <line x1="0" y1="340" x2="1400" y2="340" stroke="#D1D5DB" stroke-width="2" opacity="0.5"/>
  <line x1="0" y1="360" x2="1400" y2="360" stroke="#D1D5DB" stroke-width="2" opacity="0.5"/>
  <line x1="0" y1="380" x2="1400" y2="380" stroke="#D1D5DB" stroke-width="2" opacity="0.5"/>
  
  <!-- Tables -->
  <!-- Table 1 -->
  <ellipse cx="200" cy="280" rx="40" ry="20" fill="url(#tableGradient)"/>
  <!-- Chairs around table 1 -->
  <rect x="160" y="270" width="15" height="20" fill="#374151" rx="2"/>
  <rect x="225" y="270" width="15" height="20" fill="#374151" rx="2"/>
  <rect x="190" y="250" width="20" height="15" fill="#374151" rx="2"/>
  <rect x="190" y="295" width="20" height="15" fill="#374151" rx="2"/>
  
  <!-- Table 2 -->
  <ellipse cx="450" cy="280" rx="40" ry="20" fill="url(#tableGradient)"/>
  <!-- Chairs around table 2 -->
  <rect x="410" y="270" width="15" height="20" fill="#374151" rx="2"/>
  <rect x="475" y="270" width="15" height="20" fill="#374151" rx="2"/>
  <rect x="440" y="250" width="20" height="15" fill="#374151" rx="2"/>
  <rect x="440" y="295" width="20" height="15" fill="#374151" rx="2"/>
  
  <!-- Table 3 -->
  <ellipse cx="700" cy="280" rx="40" ry="20" fill="url(#tableGradient)"/>
  <!-- Chairs around table 3 -->
  <rect x="660" y="270" width="15" height="20" fill="#374151" rx="2"/>
  <rect x="725" y="270" width="15" height="20" fill="#374151" rx="2"/>
  <rect x="690" y="250" width="20" height="15" fill="#374151" rx="2"/>
  <rect x="690" y="295" width="20" height="15" fill="#374151" rx="2"/>
  
  <!-- Table 4 -->
  <ellipse cx="950" cy="280" rx="40" ry="20" fill="url(#tableGradient)"/>
  <!-- Chairs around table 4 -->
  <rect x="910" y="270" width="15" height="20" fill="#374151" rx="2"/>
  <rect x="975" y="270" width="15" height="20" fill="#374151" rx="2"/>
  <rect x="940" y="250" width="20" height="15" fill="#374151" rx="2"/>
  <rect x="940" y="295" width="20" height="15" fill="#374151" rx="2"/>
  
  <!-- Table 5 -->
  <ellipse cx="1200" cy="280" rx="40" ry="20" fill="url(#tableGradient)"/>
  <!-- Chairs around table 5 -->
  <rect x="1160" y="270" width="15" height="20" fill="#374151" rx="2"/>
  <rect x="1225" y="270" width="15" height="20" fill="#374151" rx="2"/>
  <rect x="1190" y="250" width="20" height="15" fill="#374151" rx="2"/>
  <rect x="1190" y="295" width="20" height="15" fill="#374151" rx="2"/>
  
  <!-- Hanging lights -->
  <circle cx="200" cy="150" r="8" fill="#FED7AA" opacity="0.8"/>
  <line x1="200" y1="0" x2="200" y2="150" stroke="#9CA3AF" stroke-width="2" opacity="0.5"/>
  
  <circle cx="450" cy="150" r="8" fill="#FED7AA" opacity="0.8"/>
  <line x1="450" y1="0" x2="450" y2="150" stroke="#9CA3AF" stroke-width="2" opacity="0.5"/>
  
  <circle cx="700" cy="150" r="8" fill="#FED7AA" opacity="0.8"/>
  <line x1="700" y1="0" x2="700" y2="150" stroke="#9CA3AF" stroke-width="2" opacity="0.5"/>
  
  <circle cx="950" cy="150" r="8" fill="#FED7AA" opacity="0.8"/>
  <line x1="950" y1="0" x2="950" y2="150" stroke="#9CA3AF" stroke-width="2" opacity="0.5"/>
  
  <circle cx="1200" cy="150" r="8" fill="#FED7AA" opacity="0.8"/>
  <line x1="1200" y1="0" x2="1200" y2="150" stroke="#9CA3AF" stroke-width="2" opacity="0.5"/>
</svg>
